<?xml version="1.0" encoding="iso-8859-1"?>
<!-- Generator: Adobe Illustrator 18.1.1, SVG Export Plug-In . SVG Version: 6.00 Build 0)  -->
<svg version="1.1" id="Capa_1" xmlns="http://www.w3.org/2000/svg" xmlns:xlink="http://www.w3.org/1999/xlink" x="0px" y="0px"
	 viewBox="0 0 85.348 85.348" style="enable-background:new 0 0 85.348 85.348;" xml:space="preserve">
<g>
	<g>
		<path style="fill:#010002;" d="M77.45,57.691v-3.16V35.563V16.595c0-1.736-1.424-3.16-3.164-3.16h-63.22
			c-1.739,0-3.167,1.417-3.167,3.16v18.968v18.968v3.16L0,67.175c0,2.613,2.122,4.738,4.738,4.738H80.61
			c2.616,0,4.738-2.126,4.738-4.738L77.45,57.691z M49.002,70.339H36.358c-0.44,0-0.791-0.351-0.791-0.791s0.351-0.791,0.791-0.791
			h12.644c0.433,0,0.791,0.351,0.791,0.791C49.782,69.988,49.435,70.339,49.002,70.339z M29.644,67.179l2.412-2.895h21.237
			l2.412,2.895H29.644z M72.998,52.101c0,1.525-1.242,2.759-2.756,2.759H15.106c-1.514,0-2.756-1.245-2.756-2.759V19.032
			c0-1.525,1.242-2.759,2.756-2.759h55.136c1.514,0,2.756,1.242,2.756,2.759C72.998,19.032,72.998,52.101,72.998,52.101z"/>
		<path style="fill:#010002;" d="M51.578,32.542l2.734-4.098l-3.035-3.046l-4.101,2.738c-0.433-0.222-0.913-0.365-1.378-0.523
			l-0.977-4.885h-4.295l-0.977,4.885c-0.469,0.165-0.945,0.304-1.378,0.523l-4.101-2.738l-3.035,3.038l2.734,4.101
			c-0.225,0.447-0.412,0.909-0.573,1.392l-4.839,0.977v4.291l4.839,0.97c0.161,0.487,0.347,0.948,0.573,1.396l-2.738,4.101
			l3.038,3.035l4.101-2.734c0.433,0.218,0.909,0.358,1.378,0.523l0.977,4.885h4.295l0.973-4.885
			c0.465-0.161,0.948-0.301,1.378-0.523l4.101,2.734l3.038-3.035l-2.738-4.101c0.229-0.447,0.412-0.909,0.573-1.396l4.839-0.97
			l0.004-4.291l-4.842-0.97C51.994,33.452,51.811,32.99,51.578,32.542z M42.674,42.062c-2.766,0-5.01-2.248-5.01-5.01
			c0-2.763,2.244-5.007,5.01-5.007c2.766,0,5.01,2.244,5.01,5.007C47.685,39.815,45.441,42.062,42.674,42.062z"/>
	</g>
</g>
<g>
</g>
<g>
</g>
<g>
</g>
<g>
</g>
<g>
</g>
<g>
</g>
<g>
</g>
<g>
</g>
<g>
</g>
<g>
</g>
<g>
</g>
<g>
</g>
<g>
</g>
<g>
</g>
<g>
</g>
</svg>
