<svg xmlns="http://www.w3.org/2000/svg" viewBox="0 0 517 285.43"><defs><style>.cls-1{fill:#c05621;}.cls-2{fill:#fff;}.cls-3{fill:#f2ddd3;}.cls-4{fill:#e6bba6;}.cls-5{fill:#d99a7a;}.cls-6{fill:#cd784d;}</style></defs><title>logo-orange</title><g id="Capa_2" data-name="Capa 2"><g id="naranja"><path class="cls-1" d="M508.51,68.15,517,0H130.48C70,0,49.88,29.34,43.57,54.34L2.3,220.59C-2,237.67-.28,252,7.41,263c10.47,15.05,30.87,22.41,62.31,22.41H400.37c24.88-.09,44.8-4.9,59.13-14.28,15.42-10.08,24.62-25.23,27.39-45l10-74.2a28.15,28.15,0,0,0-5-20.23c-9.18-13.18-30.39-22.53-66.67-29.47L371.85,91.88l3.87-23.73ZM377.64,185l-4.33,25.16H119.11l31.4-141.21H263.07L252.2,124.51a26,26,0,0,0,3.72,19.37c8.39,13.17,29.65,22.76,66.91,30.12Z"/><path class="cls-2" d="M351,11.32H504.24l-5.75,45.19H366.12l-7.41,44.8L423.52,114q65.14,12.48,61.91,35.54l-10.17,74.18c-4.61,32.27-29.74,48.67-75.34,48.83H235.56l9.12-49.82H383.14l8-47.46L324.82,162q-65.79-13-61.39-35L277,56.51C283.07,26.27,307.71,11.32,351,11.32Z"/><polygon class="cls-3" points="244.52 222.69 235.4 272.51 245.99 272.51 254.99 222.69 244.52 222.69"/><polygon class="cls-4" points="228.38 222.69 219.07 272.51 224.41 272.51 233.66 222.69 228.38 222.69"/><polygon class="cls-5" points="215 222.69 205.53 272.51 208.08 272.51 217.52 222.69 215 222.69"/><polygon class="cls-6" points="202.76 222.69 193.15 272.51 194.55 272.51 204.15 222.69 202.76 222.69"/></g></g></svg>