<svg id="Capa_1" enable-background="new 0 0 512 512" height="512" viewBox="0 0 512 512" width="512" xmlns="http://www.w3.org/2000/svg">
    <g>
        <path d="m114.5 259c0 78.023 63.477 141.5 141.5 141.5s141.5-63.477 141.5-141.5-63.477-141.5-141.5-141.5-141.5 63.477-141.5 141.5zm253 0c0 61.481-50.019 111.5-111.5 111.5s-111.5-50.019-111.5-111.5 50.019-111.5 111.5-111.5 111.5 50.019 111.5 111.5z"/>
        <path d="m241 58h30v32h-30z"/>
        <path d="m142 52.527h30v64h-30z" transform="matrix(.866 -.5 .5 .866 -21.229 89.824)"/>
        <path d="m241 0h30v27.75h-30z"/>
        <path d="m241 422h30v32h-30z"/>
        <path d="m340 395.473h30v64h-30z" transform="matrix(.866 -.5 .5 .866 -166.175 234.77)"/>
        <path d="m69.527 125h30v64h-30z" transform="matrix(.5 -.866 .866 .5 -93.703 151.703)"/>
        <path d="m412.473 323h30v64h-30z" transform="matrix(.5 -.866 .866 .5 -93.702 547.703)"/>
        <path d="m52.527 340h64v30h-64z" transform="matrix(.866 -.5 .5 .866 -166.177 89.826)"/>
        <path d="m395.473 142h64v30h-64z" transform="matrix(.866 -.5 .5 .866 -21.229 234.773)"/>
        <path d="m125 412.473h64v30h-64z" transform="matrix(.5 -.866 .866 .5 -291.702 349.7)"/>
        <path d="m323 69.527h64v30h-64z" transform="matrix(.5 -.866 .866 .5 104.296 349.701)"/>
        <path d="m241 484.25h30v27.75h-30z"/>
        <path d="m58 241h32v30h-32z"/>
        <path d="m0 241h27.75v30h-27.75z"/>
        <path d="m422 241h32v30h-32z"/>
        <path d="m484.25 241h27.75v30h-27.75z"/>
    </g>
</svg>
